# xmcd CD database file
#
# Track frame offsets:
#	150
#	21977
#	38980
#	48897
#	57837
#	69137
#	84765
#	103237
#	116837
#	131482
#	144390
#	157035
#
# Disc length: 2261 seconds
#
# Revision: 4
# Processed by: cddbd v1.5.1PL0 Copyright (c) Steve Scherf et al.
# Submitted via: CDex 1.50beta10
#
DISCID=9d08d30c
DTITLE=Jonny Hill - Ruf Teddybär eins-vier
DYEAR=1900
DGENRE=
TTITLE0=Ruf Teddybär eins-vier
TTITLE1=Rosen für Mama
TTITLE2=Komm in meine Welt
TTITLE3=Ein Ring aus Feuer
TTITLE4=Tennessee - Waltz
TTITLE5=Lucille
TTITLE6=Sylvia´s Mutter
TTITLE7=Vaya con dios
TTITLE8=Nur noch einmal nach Haus
TTITLE9=Mein Lied für dich
TTITLE10=Kann Liebe alles verzeihen
TTITLE11=500 Meilen von zuhaus
EXTD=
EXTT0=
EXTT1=
EXTT2=
EXTT3=
EXTT4=
EXTT5=
EXTT6=
EXTT7=
EXTT8=
EXTT9=
EXTT10=
EXTT11=
PLAYORDER=
